<svg width="23" height="22" viewBox="0 0 23 22" fill="none" xmlns="http://www.w3.org/2000/svg">
<g id="logo 2">
<g id="Layer 1">
<g id="Group">
<path id="Vector" d="M11.5 21.5758C17.3405 21.5758 22.075 16.8412 22.075 11.0008C22.075 5.16037 17.3405 0.425781 11.5 0.425781C5.65964 0.425781 0.925049 5.16037 0.925049 11.0008C0.925049 16.8412 5.65964 21.5758 11.5 21.5758Z" fill="#009393"/>
<path id="Vector_2" fill-rule="evenodd" clip-rule="evenodd" d="M11.513 11.7571C13.3316 11.7571 14.8515 11.4496 15.2229 11.0388C14.9075 10.6903 13.7667 10.4159 12.318 10.3408V11.2088C12.0586 11.2223 11.789 11.2289 11.5127 11.2289C11.2364 11.2289 10.9668 11.2223 10.7069 11.2088V10.3408C9.25863 10.4159 8.11732 10.6903 7.80192 11.0388C8.1739 11.4496 9.69405 11.7571 11.5127 11.7571H11.513ZM14.7441 7.67171V8.86695H12.318V9.69576C14.0221 9.78433 15.3009 10.1486 15.3104 10.5846V11.4935C15.3009 11.9295 14.0221 12.293 12.318 12.3818V14.4159H10.7071V12.3818C9.00298 12.2932 7.72472 11.9295 7.71521 11.4935V10.5846C7.72472 10.1486 9.00298 9.78433 10.7071 9.69576V8.86695H8.28097V7.67171H14.7444H14.7441ZM7.32684 5.76953H15.8439C16.0475 5.76953 16.235 5.8766 16.3365 6.05056L18.8176 10.3112C18.9461 10.5322 18.908 10.8112 18.7246 10.9901L11.8947 17.6572C11.6732 17.8731 11.3173 17.8731 11.0963 17.6572L4.27489 10.9991C4.08745 10.8157 4.05203 10.5288 4.19029 10.3067L6.84277 6.03734C6.94614 5.87132 7.12962 5.7698 7.3271 5.7698L7.32684 5.76953Z" fill="white"/>
</g>
</g>
</g>
</svg>
