<svg width="21" height="20" viewBox="0 0 21 20" fill="none" xmlns="http://www.w3.org/2000/svg">
<g clip-path="url(#clip0_2001_10983)">
<path d="M2.30762 6.08018V13.9202C2.30762 14.4242 2.57162 14.8802 3.01162 15.1362L9.80362 19.0562C10.2356 19.3042 10.7716 19.3042 11.2036 19.0562L17.9956 15.1362C18.4276 14.8882 18.6996 14.4242 18.6996 13.9202V6.08018C18.6996 5.57618 18.4356 5.12018 17.9956 4.86418L11.2036 0.944179C10.7716 0.696179 10.2356 0.696179 9.80362 0.944179L3.01162 4.86418C2.57962 5.11218 2.31562 5.57618 2.31562 6.08018H2.30762Z" fill="#213147"/>
<path d="M11.9801 11.5196L11.0121 14.1756C10.9881 14.2476 10.9881 14.3276 11.0121 14.4076L12.6761 18.9756L14.6041 17.8636L12.2921 11.5196C12.2361 11.3756 12.0361 11.3756 11.9801 11.5196Z" fill="#12AAFF"/>
<path d="M13.924 7.05575C13.868 6.91175 13.668 6.91175 13.612 7.05575L12.644 9.71175C12.62 9.78375 12.62 9.86375 12.644 9.94375L15.372 17.4238L17.3 16.3118L13.924 7.06375V7.05575Z" fill="#12AAFF"/>
<path d="M10.4997 1.24C10.5477 1.24 10.5957 1.256 10.6357 1.28L17.9797 5.52C18.0677 5.568 18.1157 5.664 18.1157 5.76V14.24C18.1157 14.336 18.0597 14.432 17.9797 14.48L10.6357 18.72C10.5957 18.744 10.5477 18.76 10.4997 18.76C10.4517 18.76 10.4037 18.744 10.3637 18.72L3.01974 14.48C2.93174 14.432 2.88374 14.336 2.88374 14.24V5.752C2.88374 5.656 2.93974 5.56 3.01974 5.512L10.3637 1.272C10.4037 1.248 10.4517 1.232 10.4997 1.232V1.24ZM10.4997 0C10.2357 0 9.97974 0.064 9.73974 0.2L2.39574 4.44C1.92374 4.712 1.63574 5.208 1.63574 5.752V14.232C1.63574 14.776 1.92374 15.272 2.39574 15.544L9.73974 19.784C9.97174 19.92 10.2357 19.984 10.4997 19.984C10.7637 19.984 11.0197 19.92 11.2597 19.784L18.6037 15.544C19.0757 15.272 19.3637 14.776 19.3637 14.232V5.752C19.3637 5.208 19.0757 4.712 18.6037 4.44L11.2517 0.2C11.0197 0.064 10.7557 0 10.4917 0H10.4997Z" fill="#9DCCED"/>
<path d="M5.63574 17.4319L6.31574 15.5759L7.67574 16.7039L6.40374 17.8719L5.63574 17.4319Z" fill="#213147"/>
<path d="M9.87601 5.15204H8.01201C7.87601 5.15204 7.74801 5.24004 7.70001 5.36804L3.70801 16.312L5.63601 17.424L10.036 5.36804C10.076 5.25604 9.99601 5.14404 9.88401 5.14404L9.87601 5.15204Z" fill="white"/>
<path d="M13.1403 5.15204H11.2763C11.1403 5.15204 11.0123 5.24004 10.9643 5.36804L6.4043 17.864L8.3323 18.976L13.2923 5.36804C13.3323 5.25604 13.2523 5.14404 13.1403 5.14404V5.15204Z" fill="white"/>
</g>
<defs>
<clipPath id="clip0_2001_10983">
<rect width="20" height="20" fill="white" transform="translate(0.5)"/>
</clipPath>
</defs>
</svg>
